<?xml version="1.0" encoding="utf-8"?>
<!-- Generator: Adobe Illustrator 18.0.0, SVG Export Plug-In . SVG Version: 6.00 Build 0)  -->
<!DOCTYPE svg PUBLIC "-//W3C//DTD SVG 1.1//EN" "http://www.w3.org/Graphics/SVG/1.1/DTD/svg11.dtd">
<svg version="1.1" id="Layer_1" xmlns="http://www.w3.org/2000/svg" xmlns:xlink="http://www.w3.org/1999/xlink" x="0px" y="0px"
	 viewBox="0 0 835.6 178.9" enable-background="new 0 0 835.6 178.9" xml:space="preserve">
<g>
	<path fill="#9D9B9B" d="M735.3,117.9c-8.8,0-12.7-6.2-12.7-12.4V58.6h10.9V105c0,2.7,1.2,3.8,3.8,3.8h4.1v9.1H735.3z"/>
	<path fill="#9D9B9B" d="M772.4,117.9v-3.8c-2.9,2.9-5.6,4.1-10.6,4.1s-8.6-1.2-11.2-3.8c-2.4-2.4-3.5-5.9-3.5-9.7
		c0-6.8,4.7-12.7,14.7-12.7h10.3v-2.1c0-4.7-2.4-6.8-8-6.8c-4.1,0-6.2,0.9-8.3,3.5l-6.8-6.8c4.1-4.7,8.6-5.9,15.6-5.9
		c12.1,0,18.6,5.3,18.6,15.3v28.6L772.4,117.9L772.4,117.9z M772.1,99.7h-8.6c-3.8,0-6.2,1.8-6.2,5c0,2.9,2.1,5,6.2,5
		c2.9,0,5-0.3,6.8-2.1c1.2-1.2,1.5-2.9,1.5-5.6v-2.4h0.3V99.7z"/>
	<path fill="#9D9B9B" d="M826.7,114.4c-2.4,2.4-6.2,3.8-10.6,3.8c-4.7,0-8-1.2-10.9-4.7v4.1h-10.6v-59h10.9v19.8
		c2.9-3.2,6.2-4.4,10.6-4.4c4.1,0,8.3,1.5,10.6,3.8c4.4,4.4,4.4,11.8,4.4,18.3C831.1,102.6,830.8,110.3,826.7,114.4z M812.8,83.7
		c-6.5,0-7.4,5.3-7.4,12.4s0.9,12.4,7.4,12.4c6.5,0,7.4-5.3,7.4-12.4C820.2,89.1,819.3,83.7,812.8,83.7z"/>
</g>
<polygon fill="#9D9B9B" points="641.5,46.3 641.5,2.6 572.2,46.3 572.2,2.6 502.9,46.1 502.9,2.6 433.3,46.3 433.3,2.6 364,46.1 
	364,2.6 294.4,46.3 294.4,2.6 225.4,45.9 225.4,2.6 132.8,60.4 132.8,176.3 201.8,133 201.8,176.3 271.4,132.9 271.4,176.3 
	340.7,133.1 340.7,176.3 410.3,132.9 410.3,176.3 479.6,133.1 479.6,176.3 549.2,132.9 549.2,176.3 618.5,132.9 618.5,176.3 
	711.1,118.5 711.1,2.6 "/>
<g>
	<path fill="#333333" d="M460.4,64h-10.9v13h-4.7v8.2h4.7v21.5c0,6.2,3.9,12.3,12.6,12.4v-0.3h5.9v-9.1h-3.8c-2.6,0-3.8-1.4-3.8-3.8
		V85.3h7.7V77h-7.7V64z"/>
	<path fill="#333333" d="M462.2,119.1c0,0-0.1,0-0.1,0v0H462.2z"/>
	<path fill="#333333" d="M390.5,75.2c-4.1,0-8,1.5-10.9,4.4v-4.1H369v43.6h10.9V92.9c0-5.9,4.2-8,7.4-8c3.3,0,7.1,2.1,7.1,8v26.2
		h10.8V91.4c0-4.7-0.9-8.9-4.4-12.4C398.5,76.7,394.9,75.2,390.5,75.2z"/>
	<path fill="#333333" d="M525.6,75.3c-11.2,0-18.9,7.9-18.9,22.1c0,17.4,9.8,22.1,20.1,22.1c7.9,0,12.1-2.4,16.5-6.8l-6.5-6.5
		c-2.6,2.6-5,4.1-9.7,4.1c-5.9,0-9.4-4.1-9.4-9.7h26.8v-4.7C544.5,84.1,537.7,75.3,525.6,75.3z M534.1,93.5h-16.5
		c0-2,0.3-3.2,0.9-4.7c1.2-2.6,3.9-4.4,7.4-4.4c3.9,0,6.2,1.7,7.4,4.4C533.9,90.2,534.2,91.4,534.1,93.5z"/>
	<path fill="#333333" d="M242.8,79.6v-4.1h-10.6v43.6h10.9V92.9c0-5.6,3.9-8,7.1-8c2.7,0,3.8,0.9,5.6,2.7L264,79
		c-2.9-2.9-6.2-4.1-10.3-4.1C249,74.9,244.9,77.2,242.8,79.6z"/>
	<path fill="#333333" d="M317.4,75.2c-6.2,0-10.6,2.4-13.3,5.3c-4.1,4.1-5,8.8-5,16.8c0,7.7,1.2,12.7,5,16.8
		c2.7,2.9,6.8,5.3,13.3,5.3s10.9-2.4,13.6-5.3c4.1-4.1,5-8.8,5-16.8c0-7.7-1.2-12.7-5-16.8C328.3,77.6,323.9,75.2,317.4,75.2z
		 M322.7,107.9c-1.2,1.2-2.9,1.8-5,1.8s-3.8-0.6-5-1.8c-2.1-2.3-2.4-6.2-2.4-10.6c0-4.7,0-8.2,2.4-10.6c1.2-1.5,2.9-2.1,5-2.1
		s3.8,0.9,5,2.1c2.1,2.4,2.4,6.2,2.4,10.6S325.1,105.5,322.7,107.9z"/>
	<path fill="#333333" d="M182.7,72.4c0-2.3,1.1-3.8,3.8-3.8h4.1v-9.1h-6.2c-8.9,0-12.7,6.2-12.7,12.4v5.3h-4.4v8.3h4.5v33.9h10.9
		V85.5c0,0,7.9,0,8-0.1v-8.3h-8V72.4z"/>
	<path fill="#333333" d="M598.7,75.2c-4.1,0-8,1.5-10.9,4.4v-4.1h-10.6v43.6h10.9V92.9c0-5.9,3.9-8,7.4-8c3.3,0,7.1,2.1,7.1,8v26.2
		h10.8V91.4c0-4.7-0.9-8.9-4.4-12.4C606.7,76.7,603.1,75.2,598.7,75.2z"/>
	<path fill="#333333" d="M672.5,60.1v19.8c-2.9-3.2-6.2-4.4-10.6-4.4c-4.4,0-8.2,1.4-10.6,3.8c-4.4,4.4-4.4,11.8-4.4,18.3
		s0,13.9,4.4,18.3c2.3,2.3,6.5,3.8,10.6,3.8c4.4,0,7.7-1.5,10.6-4.7v4.1v0.3h10.9V60.1H672.5z M664.8,109.7c-6.5,0-7.4-5.3-7.4-12.4
		s0.9-12.4,7.4-12.4s7.4,5.3,7.4,12.4S671.3,109.7,664.8,109.7z"/>
</g>
<g>
	<path fill="#9D9B9B" d="M21.4,117.9c-8.8,0-12.7-6.2-12.7-12.4V84H4v-8.3h4.7v-13h10.9v13h7.7V84h-7.7v21c0,2.7,1.2,3.8,3.8,3.8
		h3.9v9.1H21.4L21.4,117.9z"/>
	<path fill="#9D9B9B" d="M62.4,117.9V91.1c0-5.9-3.8-7.7-7.1-7.7c-3.5,0-7.1,2.1-7.1,7.7v26.8H37.3V58h10.9v20.1
		c2.9-2.9,6.5-4.4,10.6-4.4c9.4,0,14.7,6.8,14.7,15.9v28.3H62.4z"/>
	<path fill="#9D9B9B" d="M93.6,99.4c0,5.6,3.5,9.7,9.4,9.7c4.7,0,7.1-1.5,10-4.1l6.5,6.5c-4.4,4.4-8.8,6.8-16.5,6.8
		c-10.3,0-20.3-4.7-20.3-22.4c0-14.2,7.7-22.4,19.2-22.4c12.1,0,19.2,8.8,19.2,20.9v5H93.6z M109.2,87.3c-1.2-2.7-3.5-4.4-7.4-4.4
		c-3.8,0-6.2,2.1-7.4,4.4c-0.6,1.5-0.9,2.7-0.9,4.7H110C110.1,89.9,109.8,88.8,109.2,87.3z"/>
</g>
</svg>
