<svg viewBox="0 0 17 35" xmlns="http://www.w3.org/2000/svg"><path d="M11.4 28.5c0 2-.5 3.5-1.5 4.5s-2.4 1.5-4.3 1.5H0v-4.1h2.9c.7 0 1.3 0 1.8-.1s.9-.3 1.2-.6c.3-.3.5-.6.6-1.1.1-.5.2-1.1.2-1.9v-4.2c0-1.6.4-2.8 1.4-3.7.9-.9 2.1-1.3 3.5-1.4V17c-1.4-.1-2.6-.6-3.5-1.4-.9-.8-1.3-2-1.3-3.6V7.8c0-.8-.1-1.4-.2-1.9S6.2 5 6 4.8c-.3-.3-.7-.5-1.2-.6-.5-.1-1.1-.1-1.8-.1H0V0h5.5c1.9 0 3.4.5 4.3 1.6 1 1.1 1.5 2.5 1.5 4.4v4.7c0 1.6.4 2.8 1.3 3.5.9.7 2.2 1.1 3.9 1.1V19c-1.7 0-3 .3-3.8 1-.9.7-1.3 1.9-1.3 3.7v4.8z" fill="#FFF" fill-rule="evenodd"/></svg>
