<svg xmlns="http://www.w3.org/2000/svg" viewBox="0 0 206 90"><path fill="#00F" d="M0 0h90v90H0z"/><path d="M25.6 51.6c0-1.8-.4-3-1.3-3.7-.9-.7-2.2-1-3.8-1v-3.7c1.7 0 3-.4 3.9-1.1.9-.7 1.3-1.9 1.3-3.5v-4.7c0-1.9.5-3.3 1.5-4.4 1-1.1 2.4-1.6 4.3-1.6H37V32h-3c-.7 0-1.3 0-1.8.1s-.9.3-1.2.6c-.3.3-.5.6-.6 1.1-.1.5-.2 1.1-.2 1.9v4.2c0 1.6-.4 2.8-1.3 3.6s-2 1.2-3.5 1.4v.4c1.4.1 2.6.6 3.5 1.4.9.9 1.4 2.1 1.4 3.7v4.2c0 .8.1 1.4.2 1.9s.3.9.6 1.1c.3.3.7.5 1.2.6.5.1 1.1.1 1.8.1H37v4.1h-5.5c-1.8 0-3.3-.5-4.3-1.5s-1.5-2.5-1.5-4.5v-4.8zm38.8 4.6c0 2-.5 3.5-1.5 4.5s-2.4 1.5-4.3 1.5H53v-4.1h2.9c.7 0 1.3 0 1.8-.1s.9-.3 1.2-.6c.3-.3.5-.6.6-1.1.1-.5.2-1.1.2-1.9v-4.2c0-1.6.4-2.8 1.4-3.7.9-.9 2.1-1.3 3.5-1.4v-.4c-1.4-.1-2.6-.6-3.5-1.4-.9-.8-1.3-2-1.3-3.6v-4.2c0-.8-.1-1.4-.2-1.9s-.4-.9-.6-1.1c-.3-.3-.7-.5-1.2-.6-.5-.1-1.1-.1-1.8-.1h-3v-4.1h5.5c1.9 0 3.4.5 4.3 1.6 1 1.1 1.5 2.5 1.5 4.4v4.7c0 1.6.4 2.8 1.3 3.5.9.7 2.2 1.1 3.9 1.1v3.7c-1.7 0-3 .3-3.8 1-.9.7-1.3 1.9-1.3 3.7v4.8z" fill="#FFF"/><path d="M101.8 11.2h9.6v2.7h-6.6v3.8h6.1v2.7h-6.1v6.3h-2.9V11.2zm12.3 13.2h2.7v-6.2h-2.7v-2.4h4.8l.3 1.5h.1c.4-.5.9-.9 1.4-1.2.5-.3 1.1-.5 1.8-.5.9 0 1.5.3 2 1s.7 1.7.7 3.3h-2.5c0-.5-.1-.9-.2-1.2s-.4-.4-.7-.4c-.6 0-1 .1-1.4.4-.4.3-.6.6-.9 1v4.7h4.7v2.4h-10.1v-2.4zm13.3-3.2c0-.9.1-1.8.4-2.5.3-.7.7-1.3 1.2-1.8s1.1-.9 1.8-1.1c.7-.3 1.5-.4 2.3-.4.9 0 1.7.1 2.4.4.7.3 1.3.7 1.8 1.2s.9 1.1 1.1 1.9c.3.7.4 1.5.4 2.4 0 .9-.1 1.8-.4 2.5-.3.7-.7 1.3-1.2 1.8s-1.1.9-1.8 1.1c-.7.3-1.5.4-2.3.4-.9 0-1.7-.1-2.4-.4-.7-.3-1.3-.7-1.8-1.2s-.9-1.1-1.1-1.9c-.3-.7-.4-1.5-.4-2.4zm2.9 0c0 .5.1.9.2 1.4.1.4.3.8.6 1.1.2.3.5.6.9.7.3.2.7.3 1.2.3.8 0 1.5-.3 2-.8s.8-1.4.8-2.6c0-1-.2-1.9-.7-2.5-.5-.6-1.2-.9-2.1-.9-.4 0-.8.1-1.1.2-.3.1-.6.3-.9.6-.3.3-.4.6-.6 1.1-.2.3-.3.8-.3 1.4zm9.9-5.5h3.8l.3 1.5h.1c.3-.5.8-.9 1.4-1.2.6-.4 1.4-.5 2.2-.5.5 0 1 .1 1.5.2s.9.4 1.2.7c.3.3.6.8.8 1.4.2.6.3 1.3.3 2.2v6.9H149v-6.3c0-.9-.2-1.6-.6-2-.4-.4-.9-.6-1.5-.6-.5 0-1 .2-1.5.5-.4.3-.7.7-.9 1.2v7.2h-2.8v-8.7h-1.5v-2.5zm15.6 2.4h-2.1v-2.4h2.1v-2.5l2.8-.8v3.4h5.6v2.4h-5.6v3.2c0 1.1.2 2 .6 2.5.4.5 1 .8 1.7.8.4 0 .7 0 1.1-.1.3-.1.6-.2.8-.4.3-.1.5-.3.7-.5.2-.2.4-.3.6-.5l1.3 2c-.2.3-.5.6-.9.8-.4.2-.8.5-1.2.6-.4.2-.9.3-1.3.4-.5.1-.9.2-1.4.2-1.6 0-2.8-.5-3.6-1.4-.8-.9-1.2-2.4-1.2-4.4v-3.3zm22.4 7.5c-.2.2-.4.4-.7.5-.3.2-.6.3-1 .5-.4.1-.8.3-1.3.4-.5.1-1 .1-1.5.1-.9 0-1.7-.1-2.5-.4-.7-.3-1.3-.7-1.8-1.2s-.9-1.1-1.2-1.8c-.3-.7-.4-1.5-.4-2.5s.2-1.8.5-2.6.7-1.3 1.2-1.8 1.1-.9 1.8-1.1c.7-.2 1.5-.4 2.3-.4.5 0 1.1.1 1.7.2.6.1 1.1.4 1.6.8s.9.8 1.2 1.5c.3.6.5 1.4.5 2.3 0 .6-.1 1.3-.2 2.1h-7.7c0 .5.1.9.3 1.2.2.3.4.6.7.8.3.2.6.4 1 .5.4.1.8.1 1.2.1.9 0 1.6-.1 2.1-.3.6-.2 1-.5 1.3-.8l.9 1.9zm-4.7-7.9c-.4 0-.7.1-1.1.2s-.6.3-.9.5c-.3.2-.5.5-.7.8-.2.3-.3.6-.3 1h5.3c0-.7-.2-1.3-.6-1.8-.3-.5-.9-.7-1.7-.7zm6.8-2h3.8l.3 1.5h.1c.3-.5.8-.9 1.4-1.2.6-.4 1.4-.5 2.2-.5.5 0 1 .1 1.5.2s.9.4 1.2.7c.3.3.6.8.8 1.4.2.6.3 1.3.3 2.2v6.9H189v-6.3c0-.9-.2-1.6-.6-2-.4-.4-.9-.6-1.5-.6-.5 0-1 .2-1.5.5-.4.3-.7.7-.9 1.2v7.2h-2.8v-8.7h-1.5v-2.5zm19.6-4.5h4.5v9.6c0 1.1.1 2.2.2 3.3v.2h1.4v2.4h-3.5l-.3-1.4h-.1c-.1.3-.3.5-.6.7-.2.2-.5.4-.8.5-.3.2-.6.3-1 .4-.4.1-.7.1-1.1.1-.7 0-1.3-.1-1.9-.3-.6-.2-1.1-.6-1.6-1-.4-.5-.8-1.1-1.1-1.8-.3-.7-.4-1.6-.4-2.5 0-.9.1-1.8.4-2.5.3-.7.7-1.4 1.2-1.9s1.1-.9 1.8-1.2c.7-.3 1.4-.4 2.2-.4.4 0 .9 0 1.3.1s.7.1 1 .3v-2.1h-1.7v-2.5zm-.5 13.5c.5 0 1-.1 1.5-.4.4-.3.7-.7.8-1.2v-4.7c-.2-.2-.5-.3-.8-.4-.4-.1-.7-.1-1.1-.1s-.8.1-1.1.2c-.4.1-.7.3-1 .6-.3.3-.5.7-.7 1.1-.2.5-.2 1-.2 1.7 0 .9.2 1.7.7 2.3.3.6 1 .9 1.9.9zm-90 13.2h2.8v10c0 1-.1 1.9-.4 2.6-.3.7-.6 1.3-1.1 1.8-.5.5-1 .8-1.7 1.1-.6.2-1.4.4-2.1.4-1.9 0-3.2-.5-4.1-1.4-.9-.9-1.3-2.3-1.3-4.1V37.9h2.9v9.7c0 1.2.2 2 .6 2.6.4.5 1.1.8 2 .8.9 0 1.5-.3 1.9-.9.4-.6.6-1.4.6-2.5v-9.7zm4.6 4.5h3.8l.3 1.5h.1c.3-.5.8-.9 1.4-1.2.6-.4 1.4-.5 2.2-.5.5 0 1 .1 1.5.2s.9.4 1.2.7c.3.3.6.8.8 1.4.2.6.3 1.3.3 2.2v6.9h-2.8v-6.3c0-.9-.2-1.6-.6-2-.4-.4-.9-.6-1.5-.6-.5 0-1 .2-1.5.5-.4.3-.7.7-.9 1.2v7.2h-2.8v-8.7H114v-2.5zm14.3 8.7h3.8v-6.2h-3.8v-2.4h6.6v8.7h4v2.4h-10.6v-2.5zm3.3-11.8c0-.5.2-.9.5-1.2.3-.3.8-.5 1.4-.5.6 0 1.1.2 1.4.5.4.3.5.7.5 1.2s-.2.9-.5 1.2c-.4.3-.8.5-1.4.5-.6 0-1-.2-1.4-.5-.3-.3-.5-.7-.5-1.2zm9.6 8.6c0-.9.1-1.8.4-2.5.3-.7.7-1.3 1.2-1.8s1.1-.9 1.8-1.1c.7-.3 1.5-.4 2.3-.4.9 0 1.7.1 2.4.4.7.3 1.3.7 1.8 1.2s.9 1.1 1.1 1.9c.3.7.4 1.5.4 2.4 0 .9-.1 1.8-.4 2.5-.3.7-.7 1.3-1.2 1.8s-1.1.9-1.8 1.1c-.7.3-1.5.4-2.3.4-.9 0-1.7-.1-2.4-.4-.7-.3-1.3-.7-1.8-1.2s-.9-1.1-1.1-1.9c-.3-.7-.4-1.5-.4-2.4zm2.9 0c0 .5.1.9.2 1.4.1.4.3.8.6 1.1.2.3.5.6.9.7.3.2.7.3 1.2.3.8 0 1.5-.3 2-.8s.8-1.4.8-2.6c0-1-.2-1.9-.7-2.5-.5-.6-1.2-.9-2.1-.9-.4 0-.8.1-1.1.2-.3.1-.6.3-.9.6-.3.3-.4.6-.6 1.1-.3.3-.3.8-.3 1.4zm9.9-5.5h3.8l.3 1.5h.1c.3-.5.8-.9 1.4-1.2.6-.4 1.4-.5 2.2-.5.5 0 1 .1 1.5.2s.9.4 1.2.7c.3.3.6.8.8 1.4.2.6.3 1.3.3 2.2v6.9h-2.8v-6.3c0-.9-.2-1.6-.6-2-.4-.4-.9-.6-1.5-.6-.5 0-1 .2-1.5.5-.4.3-.7.7-.9 1.2v7.2h-2.8v-8.7H154v-2.5zM109.9 75h2.4v4.4c-.5.3-1 .6-1.8.8-.7.2-1.4.3-2.2.3-.9 0-1.8-.1-2.7-.4-.9-.3-1.6-.8-2.2-1.4-.6-.6-1.2-1.5-1.5-2.5-.4-1-.6-2.3-.6-3.7 0-1.5.2-2.8.7-3.8.4-1 1-1.9 1.7-2.5.7-.6 1.5-1.1 2.3-1.4.8-.3 1.7-.4 2.5-.4.9 0 1.6.1 2.2.2.6.1 1.1.3 1.5.5v4.6h-2.4v-2.5c-.4-.1-.9-.1-1.4-.1-.6 0-1.1.1-1.6.3-.5.2-.9.5-1.3 1-.4.4-.6 1-.8 1.7-.2.7-.3 1.5-.3 2.4 0 .8.1 1.5.3 2.2.2.7.5 1.2.8 1.7.4.5.8.8 1.3 1.1.5.3 1.1.4 1.8.4.5 0 .9 0 1.4-.1V75zm4.6-.4c0-.9.1-1.8.4-2.5.3-.7.7-1.3 1.2-1.8s1.1-.9 1.8-1.1c.7-.3 1.5-.4 2.3-.4.9 0 1.7.1 2.4.4.7.3 1.3.7 1.8 1.2s.9 1.1 1.1 1.9c.3.7.4 1.5.4 2.4 0 .9-.1 1.8-.4 2.5-.3.7-.7 1.3-1.2 1.8s-1.1.9-1.8 1.1c-.7.3-1.5.4-2.3.4-.9 0-1.7-.1-2.4-.4-.7-.3-1.3-.7-1.8-1.2s-.9-1.1-1.1-1.9c-.3-.7-.4-1.5-.4-2.4zm2.9 0c0 .5.1.9.2 1.4.1.4.3.8.6 1.1.2.3.5.6.9.7.3.2.7.3 1.2.3.8 0 1.5-.3 2-.8s.8-1.4.8-2.6c0-1-.2-1.9-.7-2.5-.5-.6-1.2-.9-2.1-.9-.4 0-.8.1-1.1.2-.3.1-.6.3-.9.6-.3.3-.4.6-.6 1.1s-.3.8-.3 1.4zm9.9-5.5h3.8l.3 1.5h.1c.3-.5.8-.9 1.4-1.2.6-.4 1.4-.5 2.2-.5.5 0 1 .1 1.5.2s.9.4 1.2.7c.3.3.6.8.8 1.4.2.6.3 1.3.3 2.2v6.9h-2.8V74c0-.9-.2-1.6-.6-2-.4-.4-.9-.6-1.5-.6-.5 0-1 .2-1.5.5-.4.3-.7.7-.9 1.2v7.2h-2.8v-8.7h-1.5v-2.5zm14.6 11.1v-2.4h2.5v-6.2h-2.6v-2.4h2.6v-.6c0-.7.1-1.3.4-1.8.2-.5.5-.9.9-1.2.4-.3.8-.6 1.3-.7s1-.2 1.6-.2c1 0 1.8.1 2.4.3.6.2 1.2.4 1.6.6l-.8 2.2c-.3-.2-.7-.3-1.1-.4-.4-.1-.9-.2-1.5-.2-.8 0-1.3.2-1.6.5-.3.4-.5.9-.5 1.6h4.5v2.4h-4.5v6.2h4.5v2.4h-9.7z" fill="#231F20"/></svg>