<svg xmlns="http://www.w3.org/2000/svg" viewBox="0 0 110 17"><g fill="#000"><path d="M36 9.5c.7 0 1.2.7 1.2 1.3 0 .7-.5 1.4-1.2 1.4-.9 0-1.4-.7-1.4-1.4.1-.6.6-1.3 1.4-1.3M46 11.2c-.8.6-1.9 1-2.9 1-2.5 0-4.1-1.6-4.1-4 0-2.2 1.5-4 4.1-4 2 0 3.6 1.4 3.6 3.6 0 .5 0 .8-.1 1.1H41c.2 1.2 1.1 1.8 2.3 1.8.9 0 1.7-.3 2.2-.7l.5 1.2zm-5.2-3.8h3.8c0-.9-.6-1.7-1.8-1.7-1.1 0-1.8.7-2 1.7M52.8 8l2.7 4h-2.4l-1.8-2.8-1.9 2.8h-2.2l2.7-3.9-2.6-3.8h2.5l1.6 2.6 1.7-2.6h2.2zM63.4 10.9c-.6.9-1.8 1.3-3.1 1.3-2.5 0-4.2-1.6-4.2-4 0-2.2 1.6-4 4-4 1.3 0 2.4.3 3.1 1l-.9 1.6c-.6-.6-1.2-.8-1.9-.8-1.1 0-2.1.8-2.1 2.2 0 1.4 1.1 2.2 2.2 2.2.8 0 1.5-.4 2-.9l.9 1.4zM64.8 0h2.1v5c.5-.5 1.3-.8 2.2-.8 1.9 0 3.2 1 3.2 3.4V12h-2V7.8c0-1.1-.6-1.8-1.7-1.8-.6 0-1.2.4-1.7.9V12h-2.1V0zM83.5 4.3h2v.8c.5-.5 1.3-.9 2.2-.9 1.9 0 3.2.9 3.2 3.3V12h-2V7.8c0-1.2-.6-1.8-1.7-1.8-.7 0-1.2.5-1.7.9V12h-2V4.3zM108.4 11.2c-.8.6-1.9 1-2.9 1-2.5 0-4.1-1.6-4.1-4 0-2.2 1.5-4 4.1-4 2 0 3.6 1.4 3.6 3.6 0 .5 0 .8-.1 1.1h-5.6c.2 1.2 1.1 1.8 2.3 1.8.9 0 1.7-.3 2.2-.7l.5 1.2zm-5.1-3.8h3.8c0-.9-.6-1.7-1.8-1.7-1.2.1-1.8.7-2 1.7M101.4 12.7c-.3-.4-.6-.7-1-.9-.4-.2-.9-.4-1.4-.5-.5-.1-1-.1-1.6-.1H97c-.8 0-1.8.2-1.8.2s-.2-.5.3-.9c.2-.2.6-.4.6-.4 1.9-.1 3.2-1.4 3.2-3 0-.4-.1-.7-.2-1.1l1.4-.3-.1-1.7-2.5.5c-.6-.3-1.3-.5-2.1-.5-2.2 0-3.5 1.4-3.5 3.1 0 1.2.7 2.2 1.9 2.7-.7.6-1.5 2-.3 3.5l2-.3c.6-.1 1.1-.1 1.6-.1.7 0 1.2.1 1.6.3.7.4.8 1.1.3 1.7-.4.4-1 .6-1 .6l.9 1.6s1-.2 1.8-1.2c1.2-1.4.6-2.8.3-3.2m-5.6-7c1 0 1.5.6 1.5 1.4 0 .8-.6 1.3-1.5 1.3s-1.5-.6-1.5-1.3c0-.8.6-1.4 1.5-1.4M79.3 11.1c-.4.4-.7.7-1.2.9-.5.2-.9.3-1.4.3-.4 0-.7-.1-1.1-.2-.3-.1-.6-.3-.9-.5-.3-.2-.5-.5-.6-.8-.2-.3-.2-.7-.2-1.1 0-.5.1-.8.3-1.2.2-.3.4-.6.7-.8.3-.2.6-.4 1-.5.4-.1.8-.2 1.1-.3.4-.1.8-.1 1.2-.1h1.1c0-.4-.1-.9-.4-1.1-.3-.3-.8-.4-1.2-.4-.4 0-.8.1-1.1.3s-.6.4-1 .6L74.4 5c.5-.4 1-.9 1.6-1.1.7.1 1.2.1 1.9.1s1.2.1 1.7.3c.5.2.7.5 1 .8.3.3.5.8.6 1.3.1.5.2 1.1.2 1.7v4h-2v-1zm-.8-2.5h-.7c-.3 0-.5.1-.8.1-.3.1-.5.2-.7.3-.2.2-.3.4-.3.6 0 .3.1.5.4.7.2.1.5.2.8.2 1 0 1.7-.5 1.9-.8.1-.2.1-.4.1-.6v-.5h-.7zM30.8 11.3c-.5.5-1.2.9-2.2.9-2.2 0-3.6-1.6-3.6-3.9 0-2.4 1.7-4.1 4.2-4.1.7 0 1.2.1 1.6.4V.2h2v12h-2v-.9zm0-1.8V6.6c-.5-.3-1-.5-1.5-.5-1.2 0-2.2.8-2.2 2.2 0 1.4.9 2.1 1.9 2.1.7 0 1.4-.5 1.8-.9M23.7 7.7c0-2.2-1.7-3.6-3.6-3.6-1.2 0-2.2.4-2.8 1-.3-.3-.6-.6-1-.8-.6-.1-1-.3-1.8-.3-.7 0-2.3.2-3.4 1.4l1.2 1.2c.3-.3.6-.5 1-.6.3-.2.7-.3 1.1-.3.4 0 .9.1 1.2.4.3.3.4.7.4 1.2-1.3-.2-2.6-.1-3.4.1-.4.1-.7.3-1 .5-.4.1-.6.4-.8.7-.2.3-.4 1.3 0 2.2.7 1.4 2.4 1.7 4.2 1.1 1.2-.4 1.8-1.4 1.8-1.4.7 1.2 1.9 1.6 3.3 1.6 1.1 0 2.2-.3 2.9-1l-.6-1.6c-.5.3-1.3.8-2.2.8-1.2 0-2.1-.5-2.3-1.6h5.6c.2-.1.2-.5.2-1m-9.8 2.7c-.8 0-1.4-.2-1.3-.9.1-.8 1.3-.9 1.9-.9.5 0 1.5.1 1.5.1s-.4 1.7-2.1 1.7m4.2-3.1c.2-.8.8-1.5 1.9-1.6 1.1-.1 1.9.6 1.9 1.6h-3.8zM1.8.1h2.1v5c.5-.5 1.3-.8 2.2-.8 1.9 0 3.2 1 3.2 3.4v4.5h-2V7.9c0-1.1-.6-1.8-1.7-1.8-.6 0-1.3.5-1.7.9v5.1H1.8V.1z"/></g></svg>
