<svg xmlns="http://www.w3.org/2000/svg" xmlns:xlink="http://www.w3.org/1999/xlink" version="1.1" id="jimdo-logo" x="0px" y="0px" viewBox="0 0 473.3 103.1" enable-background="new 0 0 473.3 103.1" xml:space="preserve">

                    <style type="text/css">
                        #jimdo-logo__group-1 path {
                            fill:#C0D34B;
                        }
                        #jimdo-logo__group-2 path,
                        #jimdo-logo__group-2 circle {
                            fill:#1BA9E1;
                        }
                        #jimdo-logo__group-3 path {
                            fill:#008C3C;
                        }
                    </style>

                    <g id="jimdo-logo__group-1">
                        <path class="char-j" d="M245.8,101c1.3,0,2.4-0.5,3.2-1.4L157.8,2.9c-1.5-1.6-3.8-2-5.4-1c-1.6,1-2.1,2.3-2.1,3.9l0,90.7c0,2.5,2,4.5,4.5,4.5H245.8z"></path>

                        <path class="char-i" d="M132.3,96.4c0,2.5-2.1,4.6-4.6,4.6h-17.1c-2.5,0-4.6-2.1-4.6-4.6V5.6c0-2.5,2.1-4.6,4.6-4.6h17.1c2.5,0,4.6,2.1,4.6,4.6V96.4z"></path>

                        <path class="char-m1" d="M5,59.4c-2.8,0-5,2.2-5,5l0,0.7C0,86.2,18.7,103,44,103c30.1,0,44.1-18.3,44.1-44.6c0-19.6,0-52.4,0-52.4c0-2.8-2.2-5-5-5H25.8c-2.8,0-5,2.2-5,5v15.3c0,2.8,2.2,5,5,5h31c2.8,0,5,2.2,5,5V60c0,7-5.7,19-18.3,19c-7.7,0-14.9-6.1-16.9-13.7l-0.4-1.2c-0.9-2.6-3.9-4.7-6.6-4.7H5z"></path>
                    </g>

                    <g id="jimdo-logo__group-2">
                        <path class="char-m2" d="M151.6,99.6c0.8,0.8,2,1.4,3.2,1.4l91,0c2.5,0,4.5-2,4.5-4.5v-91c0-2-1.3-3.2-2.3-3.8c-1-0.5-3.3-0.9-5,0.9L151.6,99.6z"></path>

                        <path class="char-d" d="M302.3,1c2.8,0,7.2,0.1,10,0.3c0,0,45,2.7,45,49.7s-45,49.7-45,49.7c-2.7,0.2-7.2,0.3-10,0.3h-29c-2.8,0-5-2.2-5-5V6c0-2.8,2.2-5,5-5H302.3z"></path>

                        <circle class="char-o" cx="422.3" cy="51" r="51"></circle>
                    </g>

                    <g id="jimdo-logo__group-3">
                        <path class="char-m3" d="M246.9,100.8c0.2-0.1,0.5-0.1,0.7-0.2c0.1,0,0.2-0.1,0.3-0.2c0.1-0.1,0.3-0.2,0.4-0.2c0.3-0.2,0.5-0.4,0.7-0.6L200.3,48l-48.7,51.7c0,0,0,0,0,0c0.4,0.4,0.9,0.7,1.4,1c0,0,0,0,0,0c0.2,0.1,0.5,0.2,0.7,0.2c0,0,0.1,0,0.1,0c0.3,0.1,0.6,0.1,0.9,0.1h91c0.3,0,0.6,0,0.9-0.1C246.8,100.9,246.9,100.9,246.9,100.8z"></path>
                    </g>

                </svg>